<?xml version="1.0" encoding="utf-8"?>
<!-- Generator: Adobe Illustrator 16.0.0, SVG Export Plug-In . SVG Version: 6.00 Build 0)  -->
<!DOCTYPE svg PUBLIC "-//W3C//DTD SVG 1.1//EN" "http://www.w3.org/Graphics/SVG/1.1/DTD/svg11.dtd">
<svg version="1.1" id="Layer_1" xmlns="http://www.w3.org/2000/svg" xmlns:xlink="http://www.w3.org/1999/xlink" x="0px" y="0px"
	 width="450px" height="60px" viewBox="0 0 450 60" enable-background="new 0 0 450 60" xml:space="preserve">
<g opacity="0.5">
	<g>
		<path fill="#231F20" d="M91.802,18.009c-1.722,0-3.124,1.415-3.124,3.159v12.343c0,4.062,6.247,4.063,6.247,0V21.168
			C94.927,19.423,93.528,18.009,91.802,18.009z M54.124,18.009c-1.725,0-3.124,1.415-3.124,3.159v12.343
			c0,4.063,6.249,4.062,6.249,0V21.168C57.249,19.423,55.849,18.009,54.124,18.009z"/>
		<path fill="#231F20" d="M59.128,18.104v22.548c0,1.342,1.091,2.43,2.436,2.43h2.783v6.869c0,4.064,6.248,4.058,6.248,0v-6.869
			h4.859v6.869c0,4.064,6.252,4.064,6.252,0v-6.869h2.782c1.344,0,2.433-1.088,2.433-2.43V18.104H59.128z"/>
		<path fill="#231F20" d="M79.549,6.421l2.57-3.713c0.348-0.507-0.374-1.005-0.722-0.492L78.73,6.07
			c-3.657-1.433-7.878-1.434-11.534,0L64.53,2.216c-0.356-0.508-1.074-0.016-0.723,0.492l2.567,3.713
			c-4.082,1.889-6.945,5.483-7.309,9.676h27.794C86.497,11.902,83.633,8.31,79.549,6.421z M67.101,12.267
			c-1.984,0-1.984-3.064,0-3.064C69.085,9.203,69.085,12.267,67.101,12.267z M79.018,12.267c-1.979,0-1.979-3.064,0-3.064
			C81.005,9.203,81.005,12.267,79.018,12.267z"/>
	</g>
	<path id="text1535_1_" fill="#231F20" d="M12.988,14.058c2.672,0,5.163,0.959,7.736,1.545c1.967,0.446,3.626,0.048,5.535-0.581
		c2.592-0.843,5.137-1.501,7.878-1.015c3.072,0.542,5.484,2.398,7.422,4.771c-3.335,2.834-5.743,6.24-5.361,10.812
		c0.319,3.89,2.869,8.292,6.801,9.446c-0.998,3.217-2.687,6.3-4.721,8.98c-1.543,2.039-3.688,4.262-6.404,4.447
		c-2.992,0.197-5.69-1.752-8.665-1.911c-3.109-0.18-5.661,2.011-8.699,2.011c-2.586,0-4.716-1.844-6.272-3.712
		c-2.517-3.02-4.419-6.716-5.689-10.421c-2.18-6.372-2.482-14.462,1.857-20.038C6.683,15.503,9.542,14.058,12.988,14.058
		 M31.482,2.5c0.849,2.714-0.769,6.238-2.436,8.332c-2.006,2.516-4.283,3.574-7.43,3.841c0.042-2.976,0.818-5.545,2.322-7.717
		C25.47,4.792,27.981,3.304,31.482,2.5"/>
	<g>
		<path fill="#231F20" d="M161.896,21.663c0-3.511-5.785-2.539-8.025-2.539l-1.263,5.837
			C155.36,24.96,161.896,25.994,161.896,21.663z"/>
		<path fill="#231F20" d="M173.879,21.663c0-3.511-5.779-2.539-8.023-2.539l-1.264,5.837
			C167.347,24.96,173.879,25.996,173.879,21.663z"/>
		<path fill="#231F20" d="M160.289,30.447c0-3.513-5.78-2.542-8.024-2.542l-1.264,5.84C153.759,33.745,160.289,34.78,160.289,30.447
			z"/>
		<path fill="#231F20" d="M172.272,30.447c0-3.513-5.779-2.542-8.023-2.542l-1.265,5.84
			C165.741,33.745,172.272,34.78,172.272,30.447z"/>
		<path fill="#231F20" d="M184.81,26.884c0-3.513-5.776-2.543-8.021-2.543l-1.265,5.841C178.277,30.184,184.81,31.217,184.81,26.884
			z"/>
		<path fill="#231F20" d="M183.085,36.031c0-3.51-5.784-2.538-8.027-2.538l-1.264,5.84
			C176.538,39.334,183.085,40.369,183.085,36.031z"/>
		<path fill="#231F20" d="M170.55,39.597c0-3.521-5.775-2.548-8.022-2.548l-1.265,5.842C164.02,42.893,170.55,43.927,170.55,39.597z
			"/>
	</g>
	<g>
		<path id="path5_1_" fill="#231F20" d="M206.544,18.123c0,3.487-5.669,3.225-5.28-0.292
			C201.628,14.561,206.544,14.798,206.544,18.123L206.544,18.123z"/>
		<path id="path7_1_" fill="#231F20" d="M201.002,33.273c0-2.418,0.2-4.9,0.862-7.234c0.236-0.833,0.792-2.987,1.971-2.987
			c1.234,0,1.818,2.098,2.077,2.987c0.681,2.331,0.878,4.816,0.878,7.234c0,2.419-0.197,4.904-0.878,7.237
			c-0.26,0.89-0.844,2.989-2.077,2.989c-1.18,0-1.734-2.155-1.971-2.989C201.203,38.174,201.002,35.692,201.002,33.273
			L201.002,33.273z"/>
	</g>
	<path fill="#231F20" d="M123.77,32.883c-2.142-0.252-3.737-1.119-5.209-2.098c-0.23,0.115-0.461,0.23-0.692,0.345l-3.189,11.007
		l0,0c4.088,2.695,9.272,3.287,13.694,0.886l3.235-11.173c-0.913-0.46-1.072-0.105-2.03,0.256
		C127.74,32.797,125.731,33.114,123.77,32.883C121.627,32.633,127.688,33.346,123.77,32.883z M116.847,29.604
		c-2.39-1.635-4.855-2.521-7.791-2.229c-1.684,0.168-3.458,0.66-4.886,1.6l-3.169,10.948l0,0c0.709,0.377,0.796,0.246,1.544-0.046
		c1.052-0.406,2.159-0.676,3.282-0.787c2.674-0.272,4.966,0.447,7.208,1.854c0.208-0.107,0.421-0.216,0.628-0.323L116.847,29.604z
		 M111.624,26.234c2.058,0.141,3.611,0.964,5.091,1.892c0.21-0.108,0.42-0.214,0.631-0.322l3.182-11.021
		c-2.392-1.638-4.853-2.521-7.79-2.229c-1.686,0.167-3.458,0.66-4.888,1.598l-3.173,10.949c0.302,0.162,0.531,0.402,0.85,0.254
		c0.498-0.229,1.013-0.425,1.536-0.588C108.533,26.312,110.086,26.129,111.624,26.234C113.68,26.375,108.765,26.04,111.624,26.234z
		 M134.599,18.684c-3.998,2.178-8.633,1.762-12.359-0.718l-0.692,0.346l-3.186,11.006l0,0c4.093,2.7,9.264,3.284,13.693,0.884
		l3.233-11.172L134.599,18.684z"/>
	<g>
		<g>
			<path fill="#231F20" d="M280.54,30.458c0-0.257-0.012-2.521-1.369-3.876c-2.279-2.279-6.711-1.688-9.379-0.494
				c0.13,0.598,0.672,1.914,2.169,2.17c1.435,0.252,3.313-0.451,4.498,0.674c0.462,0.441,0.568,1.191,0.542,1.912
				c-1.656-0.479-3.41-0.668-5.116-0.332c-1.324,0.262-2.176,1.076-2.921,2.142c-0.072-2.407-0.05-4.819-0.053-7.228
				c-0.002-1.095,0.145-2.272-0.455-3.247c-0.566-0.921-2.063-1.787-3.188-1.67c0.023,1.213,0,4.987,0,6.511
				c-0.93-1.111-1.94-1.963-4.138-2.018c-2.562-0.056-4.506,1.898-5.375,4.138c-0.258-1.112-0.914-2.378-1.499-2.815
				c-1.39-1.053-3.382-1.37-5.085-1.195c-0.416,0.042-4.188,0.462-4.165,1.013c0.07,1.384,1.707,2.145,2.874,2.132
				c0.983-0.012,3.057-0.297,3.771,0.581c0.607,0.752,0.673,1.992,0.673,1.992c-2.599-0.826-5.618-0.808-7.702,1.161
				c0.105-1.138-0.646-3.823-1.14-4.522c-2.027-2.897-6.586-3.412-8.785-0.439l-0.023-6.512c-2.688,0-3.643,2.172-3.62,2.946
				c0.022,0.698-0.052,13.851-0.052,14.708c0.67,0.024,2.74,0.31,3.645-1.656c2.529,3.18,7.619,2.133,9.327-1.371
				c0.182,1.499,1.45,3.231,4.211,3.309c2.767,0.076,3.62-1.19,4.085-1.656c0.208,1.191,1.263,1.345,3.593,1.449
				c0-0.623,0.022-2.275-0.025-3.465c0.361,1.164,2.22,3.699,5.529,3.644c2.22-0.034,3.282-1.162,3.929-1.859
				c0.283,0.491,0.979,1.681,3.638,1.603c0.03-0.725,0.055-1.191,0.03-1.89c0.462,0.828,1.805,2.274,4.364,2.2
				c0.727-0.023,2.921-0.493,3.645-1.655c0.178,0.592,0.504,0.929,1.056,1.162c0.677,0.286,2.536,0.183,2.536,0.183
				S280.54,30.717,280.54,30.458z M237.723,35.367c-2.911-0.116-3.933-3.762-2.411-5.93c2.031-2.89,5.709-0.605,5.664,2.414
				C240.952,33.716,239.688,35.445,237.723,35.367z M249.661,35.912c-1.245,0.071-2.664-0.787-2.043-2.238
				c0.688-1.611,3.49-1.29,4.729-0.605C252.373,33.92,252.32,35.757,249.661,35.912C247.906,36.014,252.32,35.757,249.661,35.912z
				 M262.218,35.367c-3.064,0-3.961-3.859-2.39-6.004c1.801-2.453,5.463-0.709,5.518,2.079
				C265.383,33.454,264.211,35.367,262.218,35.367z M274.365,35.912c-1.249,0.071-2.659-0.786-2.04-2.238
				c0.685-1.611,3.49-1.291,4.729-0.605C277.079,33.92,277.027,35.757,274.365,35.912C272.61,36.014,277.027,35.757,274.365,35.912z
				"/>
		</g>
	</g>
	<g>
		<path fill="#231F20" d="M291.003,27.054h2.036c0.995,2.457,2.296,4.955,2.896,7.539c0.628-2.664,2.274-5.229,3.456-7.689h0.245
			c1.214,2.476,2.839,5.016,3.535,7.689c0.579-2.585,1.896-5.086,2.895-7.539h1.903l-4.61,10.919h-0.267
			c-0.6-1.261-1.198-2.525-1.803-3.789c-0.648-1.367-1.434-2.742-1.792-4.213c-0.721,2.781-2.41,5.42-3.672,8.002h-0.265
			L291.003,27.054z"/>
		<path fill="#231F20" d="M315.661,36.426c1.664,0,2.792-0.642,3.51-1.423l1.158,1.087c-1.931,2.099-5.537,2.444-8,1.029
			c-2.417-1.393-3.282-4.441-2.23-6.91c1.081-2.543,3.986-3.857,6.729-3.23c2.87,0.655,4.245,3.346,4.141,6.014h-9.438
			C311.774,35.033,313.224,36.426,315.661,36.426z M319.09,31.624c-0.379-4.374-6.905-4.198-7.526,0H319.09z"/>
		<path fill="#231F20" d="M338.246,28.975c0-3.634,2.143-6.971,5.693-8.321c3.41-1.298,7.559-0.647,10.212,1.833
			c2.756,2.572,3.46,6.773,2.003,10.144c-1.436,3.319-4.901,5.32-8.587,5.32C342.427,37.95,338.246,34.316,338.246,28.975z
			 M355.761,28.975c0-4.43-3.555-8.021-8.195-8.021c-4.639,0-8.197,3.591-8.197,8.021c0,4.432,3.557,8.02,8.197,8.02
			S355.761,33.406,355.761,28.975z"/>
		<path fill="#231F20" d="M358.034,34.446l0.941-0.442c0.743,1.353,1.868,2.432,3.445,2.825c1.761,0.442,3.979,0.211,5.227-1.193
			c1.01-1.134,1.076-2.943,0.256-4.196c-0.828-1.268-2.369-1.902-3.729-2.504c-2.706-1.199-6.011-2.947-4.685-6.405
			c0.642-1.676,2.448-2.53,4.225-2.53c1.981,0,3.617,0.926,4.66,2.527l-0.86,0.539c-1.034-1.6-2.738-2.421-4.702-2.061
			c-1.744,0.32-2.664,1.732-2.469,3.389c0.339,2.894,4.708,3.516,6.805,4.914c2.805,1.878,3.412,6.146,0.106,7.923
			C364.005,38.98,359.636,37.616,358.034,34.446z"/>
		<path fill="#231F20" d="M326.008,35.444l0.058,2.297h-1.848V20.213h1.848v9.041c2.026-3.584,7.403-2.938,9.07,0.596
			c1.649,3.49-0.585,8.101-4.836,8.101C328.313,37.95,326.763,36.918,326.008,35.444z M333.759,32.376
			c0-2.156-1.512-3.951-3.84-3.951c-2.323,0-3.932,1.761-3.932,3.951c0,2.194,1.591,4.001,3.932,4.001
			C332.265,36.376,333.759,34.537,333.759,32.376z"/>
	</g>
</g>
<g>
	<g>
		<path fill="#FFFFFF" d="M91.802,17.009c-1.722,0-3.124,1.415-3.124,3.159v12.343c0,4.062,6.247,4.063,6.247,0V20.168
			C94.927,18.423,93.528,17.009,91.802,17.009z M54.124,17.009c-1.725,0-3.124,1.415-3.124,3.159v12.343
			c0,4.063,6.249,4.062,6.249,0V20.168C57.249,18.423,55.849,17.009,54.124,17.009z"/>
		<path fill="#FFFFFF" d="M59.128,17.104v22.548c0,1.342,1.091,2.43,2.436,2.43h2.783v6.869c0,4.064,6.248,4.058,6.248,0v-6.869
			h4.859v6.869c0,4.064,6.252,4.064,6.252,0v-6.869h2.782c1.344,0,2.433-1.088,2.433-2.43V17.104H59.128z"/>
		<path fill="#FFFFFF" d="M79.549,5.421l2.57-3.713c0.348-0.507-0.374-1.005-0.722-0.492L78.73,5.07
			c-3.657-1.433-7.878-1.434-11.534,0L64.53,1.216c-0.356-0.508-1.074-0.016-0.723,0.492l2.567,3.713
			c-4.082,1.889-6.945,5.483-7.309,9.676h27.794C86.497,10.902,83.633,7.31,79.549,5.421z M67.101,11.267
			c-1.984,0-1.984-3.064,0-3.064C69.085,8.203,69.085,11.267,67.101,11.267z M79.018,11.267c-1.979,0-1.979-3.064,0-3.064
			C81.005,8.203,81.005,11.267,79.018,11.267z"/>
	</g>
	<path id="text1535_13_" fill="#FFFFFF" d="M12.988,13.058c2.672,0,5.163,0.959,7.736,1.545c1.967,0.446,3.626,0.048,5.535-0.581
		c2.592-0.843,5.137-1.501,7.878-1.015c3.072,0.542,5.484,2.398,7.422,4.771c-3.335,2.834-5.743,6.24-5.361,10.812
		c0.319,3.89,2.869,8.292,6.801,9.446c-0.998,3.217-2.687,6.3-4.721,8.98c-1.543,2.039-3.688,4.262-6.404,4.447
		c-2.992,0.197-5.69-1.752-8.665-1.911c-3.109-0.18-5.661,2.011-8.699,2.011c-2.586,0-4.716-1.844-6.272-3.712
		c-2.517-3.02-4.419-6.716-5.689-10.421c-2.18-6.372-2.482-14.462,1.857-20.038C6.683,14.503,9.542,13.058,12.988,13.058
		 M31.482,1.5c0.849,2.714-0.769,6.238-2.436,8.332c-2.006,2.516-4.283,3.574-7.43,3.841c0.042-2.976,0.818-5.545,2.322-7.717
		C25.47,3.792,27.981,2.304,31.482,1.5"/>
	<g>
		<path fill="#FFFFFF" d="M161.896,20.663c0-3.511-5.785-2.539-8.025-2.539l-1.263,5.837
			C155.36,23.96,161.896,24.995,161.896,20.663z"/>
		<path fill="#FFFFFF" d="M173.879,20.663c0-3.511-5.779-2.539-8.023-2.539l-1.264,5.837
			C167.347,23.96,173.879,24.996,173.879,20.663z"/>
		<path fill="#FFFFFF" d="M160.289,29.447c0-3.513-5.78-2.542-8.024-2.542l-1.264,5.84C153.759,32.745,160.289,33.78,160.289,29.447
			z"/>
		<path fill="#FFFFFF" d="M172.272,29.447c0-3.513-5.779-2.542-8.023-2.542l-1.265,5.84
			C165.741,32.745,172.272,33.78,172.272,29.447z"/>
		<path fill="#FFFFFF" d="M184.81,25.884c0-3.513-5.776-2.543-8.021-2.543l-1.265,5.841C178.277,29.184,184.81,30.217,184.81,25.884
			z"/>
		<path fill="#FFFFFF" d="M183.085,35.031c0-3.51-5.784-2.538-8.027-2.538l-1.264,5.84
			C176.538,38.334,183.085,39.369,183.085,35.031z"/>
		<path fill="#FFFFFF" d="M170.55,38.597c0-3.521-5.775-2.548-8.022-2.548l-1.265,5.842C164.02,41.893,170.55,42.927,170.55,38.597z
			"/>
	</g>
	<g>
		<path id="path5_13_" fill="#FFFFFF" d="M206.544,17.123c0,3.487-5.669,3.225-5.28-0.292
			C201.628,13.561,206.544,13.798,206.544,17.123L206.544,17.123z"/>
		<path id="path7_13_" fill="#FFFFFF" d="M201.002,32.273c0-2.418,0.2-4.9,0.862-7.234c0.236-0.833,0.792-2.987,1.971-2.987
			c1.234,0,1.818,2.098,2.077,2.987c0.681,2.331,0.878,4.816,0.878,7.234c0,2.419-0.197,4.904-0.878,7.237
			c-0.26,0.89-0.844,2.989-2.077,2.989c-1.18,0-1.734-2.155-1.971-2.989C201.203,37.174,201.002,34.692,201.002,32.273
			L201.002,32.273z"/>
	</g>
	<path fill="#FFFFFF" d="M123.77,31.883c-2.142-0.252-3.737-1.119-5.209-2.098c-0.23,0.115-0.461,0.23-0.692,0.345l-3.189,11.007
		l0,0c4.088,2.695,9.272,3.287,13.694,0.886l3.235-11.173c-0.913-0.46-1.072-0.105-2.03,0.256
		C127.74,31.797,125.731,32.114,123.77,31.883C121.627,31.633,127.688,32.346,123.77,31.883z M116.847,28.604
		c-2.39-1.635-4.855-2.521-7.791-2.229c-1.684,0.168-3.458,0.66-4.886,1.6l-3.169,10.948l0,0c0.709,0.377,0.796,0.246,1.544-0.046
		c1.052-0.406,2.159-0.676,3.282-0.787c2.674-0.272,4.966,0.447,7.208,1.854c0.208-0.107,0.421-0.216,0.628-0.323L116.847,28.604z
		 M111.624,25.235c2.058,0.14,3.611,0.963,5.091,1.891c0.21-0.108,0.42-0.214,0.631-0.322l3.182-11.021
		c-2.392-1.638-4.853-2.521-7.79-2.229c-1.686,0.167-3.458,0.66-4.888,1.598l-3.173,10.949c0.302,0.162,0.531,0.402,0.85,0.254
		c0.498-0.229,1.013-0.425,1.536-0.588C108.533,25.312,110.086,25.129,111.624,25.235C113.68,25.375,108.765,25.04,111.624,25.235z
		 M134.599,17.684c-3.998,2.178-8.633,1.762-12.359-0.718l-0.692,0.346l-3.186,11.006l0,0c4.093,2.7,9.264,3.284,13.693,0.884
		l3.233-11.172L134.599,17.684z"/>
	<g>
		<g>
			<path fill="#FFFFFF" d="M280.54,29.458c0-0.257-0.012-2.521-1.369-3.876c-2.279-2.279-6.711-1.688-9.379-0.494
				c0.13,0.597,0.672,1.914,2.169,2.169c1.435,0.252,3.313-0.451,4.498,0.674c0.462,0.441,0.568,1.191,0.542,1.912
				c-1.656-0.479-3.41-0.668-5.116-0.332c-1.324,0.262-2.176,1.076-2.921,2.142c-0.072-2.407-0.05-4.819-0.053-7.228
				c-0.002-1.095,0.145-2.272-0.455-3.247c-0.566-0.921-2.063-1.787-3.188-1.67c0.023,1.213,0,4.987,0,6.511
				c-0.93-1.111-1.94-1.963-4.138-2.018c-2.562-0.056-4.506,1.898-5.375,4.138c-0.258-1.112-0.914-2.378-1.499-2.816
				c-1.39-1.053-3.382-1.369-5.085-1.194c-0.416,0.042-4.188,0.463-4.165,1.013c0.07,1.384,1.707,2.145,2.874,2.132
				c0.983-0.012,3.057-0.297,3.771,0.581c0.607,0.752,0.673,1.992,0.673,1.992c-2.599-0.826-5.618-0.808-7.702,1.161
				c0.105-1.138-0.646-3.823-1.14-4.522c-2.027-2.897-6.586-3.412-8.785-0.439l-0.023-6.512c-2.688,0-3.643,2.172-3.62,2.946
				c0.022,0.698-0.052,13.851-0.052,14.708c0.67,0.024,2.74,0.31,3.645-1.656c2.529,3.18,7.619,2.133,9.327-1.371
				c0.182,1.499,1.45,3.231,4.211,3.309c2.767,0.076,3.62-1.19,4.085-1.656c0.208,1.191,1.263,1.345,3.593,1.449
				c0-0.623,0.022-2.275-0.025-3.465c0.361,1.164,2.22,3.699,5.529,3.644c2.22-0.034,3.282-1.162,3.929-1.859
				c0.283,0.491,0.979,1.681,3.638,1.603c0.03-0.725,0.055-1.191,0.03-1.89c0.462,0.828,1.805,2.274,4.364,2.2
				c0.727-0.023,2.921-0.493,3.645-1.655c0.178,0.592,0.504,0.929,1.056,1.162c0.677,0.286,2.536,0.183,2.536,0.183
				S280.54,29.717,280.54,29.458z M237.723,34.367c-2.911-0.116-3.933-3.762-2.411-5.93c2.031-2.89,5.709-0.605,5.664,2.414
				C240.952,32.716,239.688,34.445,237.723,34.367z M249.661,34.912c-1.245,0.071-2.664-0.787-2.043-2.238
				c0.688-1.611,3.49-1.29,4.729-0.605C252.373,32.92,252.32,34.757,249.661,34.912C247.906,35.014,252.32,34.757,249.661,34.912z
				 M262.218,34.367c-3.064,0-3.961-3.859-2.39-6.004c1.801-2.453,5.463-0.709,5.518,2.079
				C265.383,32.454,264.211,34.367,262.218,34.367z M274.365,34.912c-1.249,0.071-2.659-0.786-2.04-2.238
				c0.685-1.611,3.49-1.291,4.729-0.605C277.079,32.92,277.027,34.757,274.365,34.912C272.61,35.014,277.027,34.757,274.365,34.912z
				"/>
		</g>
	</g>
	<g>
		<path fill="#FFFFFF" d="M291.003,26.054h2.036c0.995,2.457,2.296,4.955,2.896,7.539c0.628-2.664,2.274-5.229,3.456-7.689h0.245
			c1.214,2.476,2.839,5.016,3.535,7.689c0.579-2.585,1.896-5.086,2.895-7.539h1.903l-4.61,10.919h-0.267
			c-0.6-1.261-1.198-2.525-1.803-3.789c-0.648-1.367-1.434-2.742-1.792-4.213c-0.721,2.781-2.41,5.42-3.672,8.002h-0.265
			L291.003,26.054z"/>
		<path fill="#FFFFFF" d="M315.661,35.426c1.664,0,2.792-0.642,3.51-1.423l1.158,1.087c-1.931,2.099-5.537,2.444-8,1.029
			c-2.417-1.393-3.282-4.441-2.23-6.91c1.081-2.543,3.986-3.857,6.729-3.23c2.87,0.655,4.245,3.346,4.141,6.014h-9.438
			C311.774,34.033,313.224,35.426,315.661,35.426z M319.09,30.624c-0.379-4.374-6.905-4.198-7.526,0H319.09z"/>
		<path fill="#FFFFFF" d="M338.246,27.975c0-3.634,2.143-6.971,5.693-8.321c3.41-1.298,7.559-0.647,10.212,1.833
			c2.756,2.572,3.46,6.773,2.003,10.144c-1.436,3.319-4.901,5.32-8.587,5.32C342.427,36.95,338.246,33.316,338.246,27.975z
			 M355.761,27.975c0-4.43-3.555-8.021-8.195-8.021c-4.639,0-8.197,3.591-8.197,8.021c0,4.432,3.557,8.02,8.197,8.02
			S355.761,32.406,355.761,27.975z"/>
		<path fill="#FFFFFF" d="M358.034,33.446l0.941-0.442c0.743,1.353,1.868,2.432,3.445,2.825c1.761,0.442,3.979,0.211,5.227-1.193
			c1.01-1.134,1.076-2.943,0.256-4.196c-0.828-1.268-2.369-1.902-3.729-2.504c-2.706-1.199-6.011-2.947-4.685-6.405
			c0.642-1.676,2.448-2.53,4.225-2.53c1.981,0,3.617,0.926,4.66,2.527l-0.86,0.539c-1.034-1.6-2.738-2.421-4.702-2.061
			c-1.744,0.32-2.664,1.732-2.469,3.389c0.339,2.894,4.708,3.516,6.805,4.914c2.805,1.878,3.412,6.146,0.106,7.923
			C364.005,37.98,359.636,36.616,358.034,33.446z"/>
		<path fill="#FFFFFF" d="M326.008,34.444l0.058,2.297h-1.848V19.213h1.848v9.041c2.026-3.583,7.403-2.938,9.07,0.596
			c1.649,3.49-0.585,8.101-4.836,8.101C328.313,36.95,326.763,35.918,326.008,34.444z M333.759,31.376
			c0-2.156-1.512-3.951-3.84-3.951c-2.323,0-3.932,1.761-3.932,3.951c0,2.194,1.591,4.001,3.932,4.001
			C332.265,35.376,333.759,33.537,333.759,31.376z"/>
	</g>
</g>
</svg>
